<?xml version="1.0" encoding="UTF-8"?>
<!-- Generator: visioncortex VTracer 0.6.1 -->
<svg version="1.1" xmlns="http://www.w3.org/2000/svg" width="1280" height="384">
<path d="M0 0 C422.4 0 844.8 0 1280 0 C1280 126.72 1280 253.44 1280 384 C857.6 384 435.2 384 0 384 C0 257.28 0 130.56 0 0 Z " fill="none" transform="translate(0,0)"/>
<path d="M0 0 C7.78848121 -0.02314533 15.5769544 -0.04092629 23.36546135 -0.05181217 C26.98177172 -0.05703619 30.59805861 -0.06412515 34.21435547 -0.07543945 C37.70268104 -0.08628538 41.19098398 -0.09228047 44.6793251 -0.09487724 C46.66137692 -0.09763081 48.6434196 -0.1054401 50.62545776 -0.11329651 C51.82655182 -0.11337204 53.02764587 -0.11344757 54.26513672 -0.11352539 C55.85731522 -0.11685631 55.85731522 -0.11685631 57.48165894 -0.12025452 C60 0 60 0 62 1 C62.33 32.68 62.66 64.36 63 97 C66.00947346 97 67.07988557 96.65425061 69.703125 95.390625 C70.42894775 95.04974854 71.15477051 94.70887207 71.90258789 94.35766602 C72.67723389 93.99213623 73.45187988 93.62660645 74.25 93.25 C101.49663497 80.77533938 132.90473967 80.78975609 161 91 C170.32578739 94.92311288 178.37642966 100.37021651 186 107 C186.99 107.74056641 186.99 107.74056641 188 108.49609375 C205.11223509 121.77877623 214.72759779 146.10974422 217.609375 166.95703125 C220.36723007 192.13257503 214.75420902 215.54117202 198.84179688 235.4831543 C182.36240388 255.39367658 157.97168041 270.67787719 132 274 C117.06901471 275.13643606 102.71875485 274.36290091 88.23828125 270.58203125 C73.31600829 266.49086394 73.31600829 266.49086394 58 266 C56.38351562 266.14115234 56.38351562 266.14115234 54.734375 266.28515625 C43.24341716 267.54427184 31.96237906 270.34587365 21 274 C19.17711872 268.54854159 18.71350085 263.80280211 18.74171448 258.07673645 C18.73803877 257.20125851 18.73436307 256.32578057 18.73057598 255.42377299 C18.72062889 252.50226328 18.72474029 249.58094514 18.72875977 246.65942383 C18.72437073 244.55965982 18.71906793 242.45989754 18.71292114 240.36013794 C18.70143239 235.84326425 18.69596253 231.3264374 18.69503975 226.80954933 C18.69309631 219.66039912 18.67502712 212.51134547 18.65428162 205.36222839 C18.6051273 187.60210827 18.57423458 169.84196191 18.55297852 152.08178711 C18.53643748 138.28329698 18.51356797 124.48488967 18.46995777 110.68645495 C18.44823211 103.58714366 18.44011889 96.4879899 18.44235051 89.38864768 C18.4406778 84.96090186 18.42659235 80.53325792 18.40913773 76.10554886 C18.40356221 74.06103065 18.40303073 72.0164911 18.40807533 69.97197151 C18.43820767 56.32264988 17.75115264 44.19070965 11.25 31.875 C10.90509521 31.20122314 10.56019043 30.52744629 10.20483398 29.83325195 C7.62870663 24.91240709 4.69939718 20.3538719 1.34765625 15.91796875 C-0.84723995 12.79421793 -1.13722004 10.14628074 -1.125 6.4375 C-1.12757813 5.65246094 -1.13015625 4.86742187 -1.1328125 4.05859375 C-1 2 -1 2 0 0 Z " fill="#FB7F09" transform="translate(683,31)"/>
<path d="M0 0 C7.91886714 -0.02314476 15.8377202 -0.040926 23.75661278 -0.05181217 C27.43345711 -0.05703632 31.11027834 -0.0641255 34.78710938 -0.07543945 C38.3337896 -0.08628493 41.88044757 -0.09228037 45.4271431 -0.09487724 C46.78196183 -0.09672849 48.13677931 -0.10034338 49.49158859 -0.10573006 C51.38549365 -0.11296238 53.27942098 -0.11340824 55.17333984 -0.11352539 C56.79216568 -0.11685631 56.79216568 -0.11685631 58.44369507 -0.12025452 C61 0 61 0 63 1 C63.33 32.68 63.66 64.36 64 97 C67.83628488 97 69.64369617 95.66875766 73 93.8125 C78.77907546 90.76721084 84.55516348 88.75634495 90.875 87.125 C91.65875 86.92237549 92.4425 86.71975098 93.25 86.51098633 C109.09805842 82.62116097 127.09372309 82.36755696 143 86 C143.66386719 86.1453418 144.32773437 86.29068359 145.01171875 86.44042969 C161.11693286 90.0619343 175.7577385 96.73624963 188 108 C188.77730469 108.70898438 189.55460938 109.41796875 190.35546875 110.1484375 C206.01461543 125.09938156 214.70367791 144.86909941 218 166 C218.13148438 166.80824219 218.26296875 167.61648437 218.3984375 168.44921875 C221.50254026 191.1427268 215.54939016 214.2827326 201.6875 232.5625 C200.47094229 234.05205432 199.24125779 235.53096501 198 237 C197.34386719 237.80179688 196.68773437 238.60359375 196.01171875 239.4296875 C180.3104747 257.85783865 156.11738076 271.28288731 132 274 C115.87319884 274.97087935 101.13032833 273.6262933 85.50927734 269.6328125 C64.5577882 264.34907443 42.1062274 265.23775304 22 274 C19.37463166 270.09523255 19.71975011 265.9329015 19.74171448 261.41299438 C19.73803877 260.5374073 19.73436307 259.66182021 19.73057598 258.75970018 C19.72057994 255.81972167 19.72475011 252.8799317 19.72875977 249.93994141 C19.72437339 247.83401284 19.71907155 245.72808602 19.71292114 243.62216187 C19.70140899 239.08232181 19.69596079 234.54252851 19.69503975 230.0026741 C19.69309966 222.81540939 19.67504726 215.6282412 19.65428162 208.44100952 C19.60507397 190.57988128 19.57425897 172.71872665 19.55297852 154.85754395 C19.53643066 140.99354214 19.51352828 127.12962267 19.46995777 113.2656759 C19.44824716 106.13096237 19.4401176 98.99640546 19.44235051 91.8616612 C19.44067534 87.40541031 19.42657426 82.94926024 19.40913773 78.49304581 C19.40357129 76.43808226 19.40302221 74.38309751 19.40807533 72.32813263 C19.43902952 58.25581495 19.19596704 44.56980678 12.3125 31.875 C11.97089844 31.20887695 11.62929688 30.54275391 11.27734375 29.85644531 C8.51312138 24.59786536 5.2037244 19.85999714 1.46875 15.234375 C-0.14129527 11.68884978 -0.1527607 9.648301 -0.09179688 5.79785156 C-0.0785437 4.71328674 -0.06529053 3.62872192 -0.05163574 2.5112915 C-0.03459595 1.68256531 -0.01755615 0.85383911 0 0 Z " fill="#FB7F09" transform="translate(448,31)"/>
<path d="M0 0 C25.27718598 -0.02332594 50.55437035 -0.04097767 75.8315649 -0.05181217 C87.56731971 -0.05697578 99.30306784 -0.06401971 111.03881836 -0.07543945 C121.26371835 -0.08538432 131.48861351 -0.09185295 141.7135182 -0.09408849 C147.13110519 -0.09539594 152.54867834 -0.09848391 157.96626091 -0.10573006 C163.05918322 -0.11248716 168.15208592 -0.1146176 173.24501228 -0.11310768 C175.11999747 -0.11338415 176.99498327 -0.1153911 178.8699646 -0.11920547 C181.41825272 -0.12413789 183.9664656 -0.12299997 186.51475525 -0.12025452 C187.26668638 -0.12316736 188.0186175 -0.1260802 188.79333442 -0.12908131 C193.88587879 -0.11412121 193.88587879 -0.11412121 195 1 C195.15140022 2.42493081 195.23794458 3.85684512 195.29711914 5.28857422 C195.33708511 6.1997702 195.37705109 7.11096619 195.41822815 8.04977417 C195.45681442 9.04139557 195.4954007 10.03301697 195.53515625 11.0546875 C195.57813339 12.0671756 195.62111053 13.0796637 195.66539001 14.12283325 C195.80221312 17.37338733 195.93234227 20.62417289 196.0625 23.875 C196.15387534 26.06121558 196.24566679 28.2474138 196.33789062 30.43359375 C196.50514371 34.43984374 196.6715178 38.44612036 196.83227539 42.45263672 C196.86478897 43.26014374 196.89730255 44.06765076 196.93080139 44.89962769 C196.98678825 46.59898624 197 48.29971943 197 50 C182.85963955 51.20947117 176.17288004 50.0480628 165 41 C134.20208718 20.57244771 99.85782922 18.46153196 64 19 C62.8229494 21.3541012 62.87425215 22.74747402 62.87301636 25.37184143 C62.87019653 26.29028839 62.86737671 27.20873535 62.86447144 28.15501404 C62.86649567 29.16548294 62.8685199 30.17595184 62.87060547 31.21704102 C62.86885315 32.27886597 62.86710083 33.34069092 62.86529541 34.43469238 C62.86088045 37.95778011 62.86381344 41.48081798 62.8671875 45.00390625 C62.86651441 47.44245921 62.86554434 49.88101209 62.86428833 52.31956482 C62.86281188 57.43497353 62.86496442 62.5503648 62.86962891 67.66577148 C62.87532917 74.23919085 62.87204496 80.81256941 62.86605644 87.38598728 C62.86245198 92.4223817 62.86358883 97.45876636 62.86618423 102.49516106 C62.86685367 104.91978904 62.86602452 107.34441791 62.86370468 109.76904488 C62.86117972 113.15017182 62.86501641 116.53123161 62.87060547 119.91235352 C62.86858124 120.92484665 62.86655701 121.93733978 62.86447144 122.98051453 C62.86729126 123.89614166 62.87011108 124.8117688 62.87301636 125.75514221 C62.87339338 126.55542626 62.87377041 127.35571032 62.87415886 128.1802454 C62.80128833 130.02016839 62.80128833 130.02016839 64 131 C65.74325159 131.11792081 67.49118588 131.16733529 69.23828125 131.18945312 C70.35614014 131.20617065 71.47399902 131.22288818 72.62573242 131.2401123 C73.84236572 131.25368774 75.05899902 131.26726318 76.3125 131.28125 C77.55169189 131.29965942 78.79088379 131.31806885 80.06762695 131.33703613 C84.04503543 131.39600986 88.02248429 131.44893875 92 131.5 C97.22926529 131.56713055 102.45837778 131.64106621 107.6875 131.71875 C108.9041333 131.73232544 110.1207666 131.74590088 111.37426758 131.7598877 C112.49212646 131.77660522 113.60998535 131.79332275 114.76171875 131.81054688 C115.75131592 131.82307495 116.74091309 131.83560303 117.76049805 131.84851074 C120 132 120 132 121 133 C121 138.61 121 144.22 121 150 C92.29 150.495 92.29 150.495 63 151 C62.9578042 158.67025915 62.91776416 166.34008625 62.89649963 174.01036072 C62.88603434 177.58394449 62.87210331 181.15742997 62.84912109 184.73095703 C62.42727782 226.23424685 62.42727782 226.23424685 82.71484375 261.4765625 C84.18178149 264.35693266 84.13337502 265.95939153 84.08032227 269.15771484 C84.06292747 270.51574722 84.06292747 270.51574722 84.04518127 271.9012146 C84.03027145 272.59381378 84.01536163 273.28641296 84 274 C73.21268989 274.02313567 62.42538564 274.04092136 51.6380558 274.05181217 C46.6294632 274.05703831 41.62088754 274.0641311 36.61230469 274.07543945 C31.78182178 274.08627786 26.95135518 274.09227887 22.12086105 274.09487724 C20.27481199 274.09672976 18.42876385 274.10034709 16.58272171 274.10573006 C14.00385839 274.11295312 11.42506315 274.1139904 8.84619141 274.11352539 C8.07727066 274.11712067 7.30834991 274.12071594 6.51612854 274.12442017 C1.22810432 274.11405216 1.22810432 274.11405216 -1 273 C-1.08204828 271.60517921 -1.13966204 270.20891272 -1.1875 268.8125 C-1.22230469 268.03519531 -1.25710937 267.25789063 -1.29296875 266.45703125 C-0.7316339 261.74930296 2.47601609 258.31932437 5.25 254.625 C8.11755254 250.52415686 10.56090745 246.30732673 12.75 241.8125 C13.30171875 240.68457031 13.8534375 239.55664062 14.421875 238.39453125 C18.98635203 226.97856498 19.44191523 214.80129509 19.38818359 202.67993164 C19.39226159 201.10763691 19.39761028 199.53534504 19.40411377 197.96305847 C19.41764854 193.73979346 19.41254645 189.51675131 19.40297651 185.29348302 C19.39530598 180.84339055 19.40244594 176.39331538 19.40713501 171.94322205 C19.41257183 164.47326279 19.40545633 157.00339291 19.39111328 149.53344727 C19.37479678 140.93727226 19.38007642 132.34131091 19.3965925 123.74514109 C19.41027401 116.32297554 19.4120945 108.90087373 19.40427649 101.47869962 C19.3996356 97.06407805 19.39887486 92.64955636 19.40888596 88.23494148 C19.41765094 84.08064632 19.41136293 79.92662237 19.39420319 75.77235603 C19.39028832 74.26165209 19.39128466 72.75092469 19.39799118 71.24023056 C19.48755689 48.98662987 13.7082571 32.15143978 1 14 C-1.105184 10.842224 -1.25289344 10.04602866 -1.1875 6.4375 C-1.18105469 5.65246094 -1.17460938 4.86742187 -1.16796875 4.05859375 C-1 2 -1 2 0 0 Z " fill="#FB7F09" transform="translate(49,31)"/>
<path d="M0 0 C5.02686104 3.38276467 9.17776228 7.15857314 13.1875 11.6875 C13.91710937 12.51121094 14.64671875 13.33492187 15.3984375 14.18359375 C35.73370747 38.09315178 45.12138913 66.43535582 43.1875 97.6875 C41.54189095 113.34243868 34.63380623 128.19980285 23.203125 139.08984375 C12.4702887 147.59707252 0.85524841 149.82529572 -12.45800781 148.95996094 C-24.78171255 147.53386653 -34.82058771 140.80731534 -43.8125 132.6875 C-44.60962402 131.97086182 -44.60962402 131.97086182 -45.42285156 131.23974609 C-52.45445482 124.8093343 -58.22631612 118.09731938 -62.8125 109.6875 C-63.1317041 109.11580078 -63.4509082 108.54410156 -63.77978516 107.95507812 C-77.68120411 82.82482291 -84.16822291 53.84012623 -76.8125 25.6875 C-72.83196172 13.30846338 -65.80550292 1.56682049 -54.10546875 -4.78125 C-35.40288316 -13.58246675 -17.5728929 -10.64581894 0 0 Z " fill="#FDFDFD" transform="translate(584.8125,141.3125)"/>
<path d="M0 0 C7.28198321 6.41143918 13.64275606 13.32939221 19.41796875 21.12890625 C19.99160156 21.90105469 20.56523438 22.67320312 21.15625 23.46875 C25.29966265 29.49812979 28.26814341 35.93994441 31.16796875 42.62890625 C31.73342407 43.9279187 31.73342407 43.9279187 32.31030273 45.25317383 C40.72709232 65.24987022 43.81650903 91.52633431 35.63574219 112.09570312 C30.4466476 124.33576013 22.86974256 136.10885959 10.60546875 142.25390625 C10.00089844 142.56585938 9.39632812 142.8778125 8.7734375 143.19921875 C-3.39688793 148.00276345 -16.75717655 147.7767107 -28.83081055 142.95581055 C-35.95532838 139.80361173 -41.81282527 135.3007148 -47.58203125 130.12890625 C-48.55011719 129.27167969 -49.51820313 128.41445313 -50.515625 127.53125 C-68.89436027 110.22312067 -78.27303427 85.56799359 -82.58203125 61.12890625 C-82.71351563 60.39671875 -82.845 59.66453125 -82.98046875 58.91015625 C-85.76917536 40.51976675 -82.11072594 19.76041186 -71.14453125 4.62890625 C-64.05743074 -4.22706006 -55.3360617 -10.28870329 -43.97265625 -12.64453125 C-28.21226318 -14.13816327 -12.41842151 -9.90092002 0 0 Z " fill="#FDFDFD" transform="translate(822.58203125,143.87109375)"/>
<path d="M0 0 C10.15266151 -0.02312392 20.3053168 -0.04091534 30.45799923 -0.05181217 C35.17179733 -0.05704089 39.88557747 -0.06413834 44.59936523 -0.07543945 C49.14455404 -0.08626873 53.68972552 -0.09227692 58.23492622 -0.09487724 C59.97294958 -0.09673142 61.71097194 -0.10035189 63.44898796 -0.10573006 C65.87478595 -0.11294103 68.30051146 -0.11399092 70.72631836 -0.11352539 C71.45208069 -0.11712067 72.17784302 -0.12071594 72.92559814 -0.12442017 C77.88594784 -0.11405216 77.88594784 -0.11405216 79 1 C79.17830165 2.93208837 79.26793417 4.87271372 79.3125 6.8125 C79.36857422 8.39998047 79.36857422 8.39998047 79.42578125 10.01953125 C78.90362061 13.67465574 77.74079622 14.63885866 75 17 C72.44542446 22.23687985 72.11602765 28.2916362 73 34 C75.44501832 40.20917024 79.27758047 45.79013978 82.875 51.375 C83.9500582 53.05936034 85.0242869 54.74425043 86.09765625 56.4296875 C86.60441895 57.2247168 87.11118164 58.01974609 87.63330078 58.83886719 C89.66670111 62.05424049 91.61376207 65.31759471 93.54907227 68.5925293 C95.04397793 71.07297096 96.5920214 73.5119377 98.15625 75.94921875 C102.60804808 82.92651693 106.9261929 89.98422021 111.24682617 97.04321289 C112.28206928 98.7338307 113.31875446 100.42356519 114.35546875 102.11328125 C114.96028076 103.10110596 115.56509277 104.08893066 116.18823242 105.10668945 C119.29523652 110.86442982 119.29523652 110.86442982 124 115 C124 115.66 124 116.32 124 117 C128.17559381 113.33053878 130.81507289 109.25347923 133.7265625 104.54296875 C136.59030886 99.99914007 139.71666 95.63725226 142.8125 91.25 C146.99292929 85.31879264 151.13186201 79.37156365 155.125 73.3125 C158.73166302 67.84233213 162.45904561 62.46905099 166.25 57.125 C167.26439936 55.69146034 168.2787253 54.25786872 169.29296875 52.82421875 C170.85502624 50.6162744 172.41974084 48.41038369 173.98828125 46.20703125 C178.80613871 39.26118712 181.9199992 33.28561154 180.79296875 24.640625 C179.53756777 20.4600779 176.99764178 17.24392089 174.52734375 13.6875 C172.16498323 9.53071218 172.40548455 6.68180916 173 2 C173.33 1.34 173.66 0.68 174 0 C180.96003447 -0.02526838 187.9200572 -0.04283222 194.88012695 -0.05493164 C197.24992312 -0.05997341 199.61971615 -0.06680665 201.98950195 -0.07543945 C205.38754039 -0.0875119 208.78553785 -0.09322971 212.18359375 -0.09765625 C213.25024765 -0.10281754 214.31690155 -0.10797882 215.4158783 -0.11329651 C216.88729027 -0.11340981 216.88729027 -0.11340981 218.38842773 -0.11352539 C219.25668686 -0.115746 220.12494598 -0.11796661 221.01951599 -0.12025452 C223 0 223 0 224 1 C224.42775264 5.03920706 224.48525161 8.96532366 224 13 C221.8125 15.5625 221.8125 15.5625 219 17 C218.175 17.495 217.35 17.99 216.5 18.5 C215.675 18.995 214.85 19.49 214 20 C209.82174085 22.99441906 206.93853751 26.46453432 204 30.625 C203.52997559 31.27815186 203.05995117 31.93130371 202.57568359 32.60424805 C201.56683202 34.00708411 200.56089264 35.41201828 199.55761719 36.81884766 C197.46769025 39.74540051 195.35740079 42.65701451 193.24804688 45.56958008 C191.6024307 47.84368895 189.9609909 50.12076426 188.3203125 52.3984375 C186.13535133 55.43018339 183.94249427 58.45593691 181.7421875 61.4765625 C176.18631441 69.1149471 170.73591207 76.80541632 165.4375 84.625 C160.96331859 91.22254442 156.33674743 97.66393517 151.51928711 104.0144043 C142.92167977 115.35139694 134.70347001 126.96767448 126.51953125 138.60522461 C122.34929788 144.52742118 118.11046647 150.39827126 113.85986328 156.26293945 C110.15838608 161.37695347 106.50421553 166.52200885 102.875 171.6875 C98.72094293 177.59604884 94.5009561 183.44955723 90.21655273 189.26416016 C86.59695535 194.17790441 83.01107432 199.11519615 79.4375 204.0625 C78.88803711 204.82030762 78.33857422 205.57811523 77.77246094 206.35888672 C75.24087398 209.85772385 72.73412805 213.36682113 70.3046875 216.9375 C65.28155288 224.28191697 60.01930285 230.44036869 53 236 C52.13632813 236.70898438 51.27265625 237.41796875 50.3828125 238.1484375 C40.78367251 245.63298433 28.44531234 251.48918267 16 250 C6.02726352 247.64499235 -1.81583988 243.31577084 -9.34863281 236.44091797 C-11.01856889 234.92003176 -11.01856889 234.92003176 -13.14355469 233.57861328 C-16.28947324 231.17917208 -18.57827094 229.03261077 -19.40911865 225.02816772 C-20.00345625 219.19092921 -19.72760936 213.35127838 -19.5 207.5 C-19.4598267 205.7058085 -19.42333268 203.91153062 -19.390625 202.1171875 C-19.30291535 197.74264302 -19.16513544 193.37227844 -19 189 C-7.10308576 187.86586041 -7.10308576 187.86586041 -2.45751953 190.37109375 C-0.29504361 192.29329457 1.5706622 194.29035358 3.4375 196.5 C4.07880859 197.19609375 4.72011719 197.8921875 5.38085938 198.609375 C7.9391481 201.40871829 10.39605893 204.28736868 12.84765625 207.18017578 C16.03201552 210.90129258 19.02723279 214.12119503 23.125 216.875 C24.33542969 217.70644531 24.33542969 217.70644531 25.5703125 218.5546875 C30.61535426 221.55575736 35.11943948 222.83071115 41 222 C52.64348862 218.77848141 59.5869921 206.03342808 66.2578125 196.78125 C71.46456398 189.56685676 76.97999843 182.58404239 82.45703125 175.57421875 C85.98393309 171.05916209 89.49745277 166.53397218 93 162 C93.46341797 161.40251953 93.92683594 160.80503906 94.40429688 160.18945312 C95.572026 158.67626331 96.72426445 157.15115282 97.875 155.625 C98.49117187 154.81289063 99.10734375 154.00078125 99.7421875 153.1640625 C101.33500797 150.84079481 101.33500797 150.84079481 101 147 C99.80384412 144.67561808 98.57256719 142.51914878 97.1875 140.3125 C96.78442627 139.65604492 96.38135254 138.99958984 95.96606445 138.32324219 C92.03765209 131.96517017 87.96035968 125.70183939 83.87890625 119.44140625 C80.91474353 114.8855841 78.01706498 110.28930944 75.125 105.6875 C70.48654722 98.31480137 65.76523523 91.00009747 61.00537109 83.70532227 C56.87810978 77.37172915 52.80346157 71.00604588 48.75 64.625 C48.15952881 63.6959082 47.56905762 62.76681641 46.96069336 61.80957031 C44.8582318 58.50068152 42.75605314 55.19161444 40.65576172 51.88134766 C38.79652207 48.95395515 36.92513998 46.03971313 35.015625 43.14453125 C33 40 33 40 31.296875 36.82421875 C25.66562187 27.13515087 17.73902086 22.40194671 8.07788086 16.99462891 C7.04026611 16.37507324 6.00265137 15.75551758 4.93359375 15.1171875 C3.98540771 14.58722168 3.03722168 14.05725586 2.06030273 13.51123047 C-1.24862555 9.47809428 -0.38465443 5.01536319 0 0 Z " fill="#FB7F09" transform="translate(1028,116)"/>
<path d="M0 0 C7.26694473 -0.02314782 14.53388154 -0.04092756 21.80085564 -0.05181217 C25.17503026 -0.05703565 28.54917971 -0.06412361 31.92333984 -0.07543945 C35.80046259 -0.08752436 39.6775494 -0.09323263 43.5546875 -0.09765625 C44.76929657 -0.10281754 45.98390564 -0.10797882 47.23532104 -0.11329651 C48.91683762 -0.11340981 48.91683762 -0.11340981 50.63232422 -0.11352539 C51.62271698 -0.115746 52.61310974 -0.11796661 53.6335144 -0.12025452 C56 0 56 0 58 1 C58.00238835 2.13122347 58.00477671 3.26244694 58.00723743 4.42794991 C58.06610529 31.98877638 58.14203313 59.54951595 58.23571491 87.11024666 C58.28062677 100.43856589 58.32005208 113.76684382 58.34643555 127.09521484 C58.36945293 138.71600847 58.40289278 150.33671808 58.44870156 161.95744503 C58.47258324 168.10707069 58.49134516 174.2566134 58.49761391 180.40628433 C58.50368759 186.20274383 58.52376985 191.99899123 58.55427551 197.79537201 C58.5630192 199.91482695 58.56678599 202.03430966 58.56500816 204.15378189 C58.55340315 224.38531949 61.13837755 241.06597321 73 258 C73.7321875 258.70511719 74.464375 259.41023438 75.21875 260.13671875 C77.27015803 263.43426719 77.19104586 264.86876189 77.11132812 268.67895508 C77.09525513 269.67405594 77.07918213 270.6691568 77.06262207 271.69441223 C77.04195679 272.4552562 77.0212915 273.21610016 77 274 C67.10810624 274.02312428 57.21621886 274.04091552 47.32430363 274.05181217 C42.7315736 274.05704082 38.138862 274.06413812 33.54614258 274.07543945 C29.11766312 274.086269 24.68920144 274.09227698 20.26070976 274.09487724 C18.56734372 274.09673137 16.87397871 274.10035175 15.18062019 274.10573006 C12.81708768 274.1129414 10.45362955 274.1139909 8.09008789 274.11352539 C7.38302704 274.11712067 6.67596619 274.12071594 5.94747925 274.12442017 C1.11405216 274.11405216 1.11405216 274.11405216 0 273 C-1.14444104 268.04435438 -0.66715131 264.20667367 1.796875 259.75 C2.9576911 257.99247438 4.15739602 256.26598231 5.36108398 254.53759766 C15.12568124 240.32653577 17.30247321 225.09773111 17.29052734 208.25952148 C17.29651969 206.56988734 17.30332685 204.88025593 17.31088257 203.19062805 C17.32848238 198.61996975 17.33323553 194.04938645 17.33451414 189.47869754 C17.33594023 186.61560786 17.34021858 183.75253697 17.34550858 180.88945198 C17.36399216 170.87933274 17.37218168 160.8692666 17.37060547 150.85913086 C17.369406 141.56437094 17.39047451 132.26984394 17.4220928 122.9751429 C17.44835212 114.96712332 17.45896867 106.95917933 17.45769465 98.9511171 C17.45718765 94.18088934 17.46272387 89.41086856 17.48405075 84.64068413 C17.5035955 80.14663873 17.50344821 75.65299422 17.48901749 71.15893364 C17.48694792 69.52244472 17.49151771 67.88592962 17.5037384 66.24948502 C17.63761808 47.05725124 13.22801735 30.62080175 1.3203125 15.15625 C-0.12734717 11.69557246 -0.13542639 9.52311982 -0.08251953 5.80273438 C-0.07060577 4.7174646 -0.05869202 3.63219482 -0.04641724 2.51403809 C-0.03109955 1.68440552 -0.01578186 0.85477295 0 0 Z " fill="#FA7F09" transform="translate(261,31)"/>
<path d="M0 0 C7.79621694 -0.02528819 15.59242336 -0.04284068 23.38867188 -0.05493164 C26.04264725 -0.05997042 28.69661984 -0.06680151 31.35058594 -0.07543945 C35.15821011 -0.08752489 38.96579769 -0.09323275 42.7734375 -0.09765625 C43.96617279 -0.10281754 45.15890808 -0.10797882 46.38778687 -0.11329651 C47.48877716 -0.11337204 48.58976746 -0.11344757 49.72412109 -0.11352539 C51.1830629 -0.11685631 51.1830629 -0.11685631 52.67147827 -0.12025452 C55 0 55 0 57 1 C57.00146656 2.12937988 57.00293312 3.25875977 57.00444412 4.42236328 C57.04110043 31.95052349 57.1006303 59.47856261 57.18390274 87.00662231 C57.22364823 100.31920177 57.25606353 113.63169938 57.27099609 126.94433594 C57.28403586 138.5527141 57.31105993 150.1609628 57.35461307 161.76926804 C57.37717543 167.91115818 57.39291381 174.05288895 57.39188385 180.19482422 C57.39113416 185.98641592 57.40920888 191.777656 57.44116783 197.56915665 C57.4496239 199.68454507 57.45144628 201.79997314 57.44580269 203.91537094 C57.39806113 224.57688541 60.18884244 244.80503124 74.57763672 260.74804688 C76.38258957 263.60573398 76.30709835 265.40124633 76.1875 268.75 C76.16042969 269.73484375 76.13335938 270.7196875 76.10546875 271.734375 C76.07066406 272.48203125 76.03585937 273.2296875 76 274 C66.10810624 274.02312428 56.21621886 274.04091552 46.32430363 274.05181217 C41.7315736 274.05704082 37.138862 274.06413812 32.54614258 274.07543945 C28.11766312 274.086269 23.68920144 274.09227698 19.26070976 274.09487724 C17.56734372 274.09673137 15.87397871 274.10035175 14.18062019 274.10573006 C11.81708768 274.1129414 9.45362955 274.1139909 7.09008789 274.11352539 C6.38302704 274.11712067 5.67596619 274.12071594 4.94747925 274.12442017 C0.11405216 274.11405216 0.11405216 274.11405216 -1 273 C-1.2734375 270.70703125 -1.2734375 270.70703125 -1.375 267.8125 C-1.42398438 266.87019531 -1.47296875 265.92789062 -1.5234375 264.95703125 C-0.92885904 261.59810668 0.38146677 260.07940887 2.64550781 257.59643555 C4.97397799 254.85204721 6.48168359 251.71515312 8.0625 248.5 C8.57792358 247.45658447 8.57792358 247.45658447 9.10375977 246.39208984 C16.21702646 231.53101595 17.1517327 217.03808594 17.14526367 200.7824707 C17.14826151 199.26840635 17.15166546 197.75434276 17.15544128 196.24028015 C17.16422286 192.15321452 17.16661695 188.06616986 17.16725707 183.9790957 C17.167971 181.41769907 17.17011181 178.85630766 17.17275429 176.29491234 C17.18198904 167.33633464 17.1860916 158.37777175 17.18530273 149.41918945 C17.18470275 141.10545917 17.19524389 132.79179393 17.2110464 124.47808009 C17.22417948 117.30997202 17.22948421 110.14188506 17.22884732 102.97376508 C17.22859399 98.70610745 17.23135328 94.43850769 17.24202538 90.1708622 C17.25180382 86.15130774 17.2517198 82.13186531 17.24450874 78.11230659 C17.24347482 76.64955733 17.24575342 75.18680072 17.2518692 73.72406387 C17.34502098 49.87118214 12.1885728 31.7828592 -1 12 C-1.23046875 9.58984375 -1.23046875 9.58984375 -1.1875 6.9375 C-1.18105469 6.05964844 -1.17460938 5.18179688 -1.16796875 4.27734375 C-1 2 -1 2 0 0 Z " fill="#FB7F09" transform="translate(918,31)"/>
<path d="M0 0 C0.89553589 0.00142502 1.79107178 0.00285004 2.71374512 0.00431824 C3.72819702 0.00124161 4.74264893 -0.00183502 5.7878418 -0.00500488 C6.88680786 0.00218063 7.98577393 0.00936615 9.11804199 0.01676941 C10.80467957 0.01745674 10.80467957 0.01745674 12.52539062 0.01815796 C14.90605726 0.02118304 17.28672188 0.02907692 19.6673584 0.04142761 C23.32156346 0.05966217 26.97551499 0.06193749 30.62976074 0.06169128 C32.93835669 0.06660715 35.24695092 0.07243577 37.55554199 0.07926941 C38.65450806 0.08038223 39.75347412 0.08149506 40.88574219 0.0826416 C42.40742004 0.09221138 42.40742004 0.09221138 43.95983887 0.10197449 C44.85537476 0.10578629 45.75091064 0.10959808 46.67358398 0.11352539 C48.83679199 0.24723816 48.83679199 0.24723816 50.83679199 1.24723816 C50.83918035 1.94554811 50.8415687 2.64385807 50.84402943 3.36332893 C50.90334429 20.40924179 50.97899867 37.45500525 51.0725069 54.50076485 C51.11734018 62.74420512 51.15678306 70.9876034 51.18322754 79.23112488 C51.20630917 86.42198075 51.23981915 93.6127023 51.28549355 100.80345142 C51.30928977 104.60564739 51.32810707 108.40771146 51.3344059 112.20998001 C51.3405191 115.80025129 51.36073873 119.39018568 51.3910675 122.98033142 C51.40383981 124.90274617 51.40229498 126.82524003 51.40007019 128.74769592 C51.57951755 145.64169165 55.57991669 161.69615876 66.26257324 175.00505066 C67.94368692 178.46739396 68.00531409 180.17380782 67.93518066 183.94987488 C67.9209758 184.9415567 67.90677094 185.93323853 67.89213562 186.95497131 C67.86474052 188.0896434 67.86474052 188.0896434 67.83679199 189.24723816 C58.74448398 189.29351879 49.65221633 189.32908552 40.55981636 189.3508625 C36.3381345 189.3613128 32.11653304 189.37549461 27.89489746 189.39811707 C23.82301922 189.41980119 19.75121847 189.43179739 15.67928696 189.43699265 C14.12350112 189.44069639 12.56771967 189.44792862 11.01196671 189.45869827 C8.83775825 189.47315454 6.66387258 189.4752186 4.48962402 189.47428894 C3.25052277 189.47873016 2.01142151 189.48317139 0.73477173 189.48774719 C-2.16320801 189.24723816 -2.16320801 189.24723816 -4.16320801 187.24723816 C-5.12230729 180.53354316 -2.45456594 176.7684911 0.83679199 171.24723816 C10.38272133 154.39270668 12.45976432 138.68645402 12.33288574 119.61051941 C12.33304127 117.67295274 12.33453903 115.73538576 12.33729553 113.79782104 C12.33866829 109.76804079 12.32630866 105.73862132 12.30334473 101.70890808 C12.2749061 96.58200438 12.27772842 91.45569591 12.29043484 86.32874775 C12.29743613 82.33836917 12.28955322 78.34812472 12.27717781 74.35776329 C12.27271048 72.46860966 12.27228445 70.5794414 12.27624321 68.69028664 C12.29150441 55.01083915 11.2974998 42.39622903 6.08679199 29.55973816 C5.83655273 28.9401825 5.58631348 28.32062683 5.32849121 27.68229675 C3.60416065 23.58555799 1.47795023 20.02423302 -1.03820801 16.37223816 C-4.44157739 11.34607013 -5.02075408 8.25006067 -4.16320801 2.24723816 C-2.16320801 0.24723816 -2.16320801 0.24723816 0 0 Z " fill="#FB7F09" transform="translate(366.1632080078125,115.75276184082031)"/>
<path d="M0 0 C6.8075707 4.35684525 10.47590547 11.4277164 13 19 C13.84664918 28.24374354 12.55426769 34.97313985 7.19921875 42.546875 C2.64310576 47.62900459 -3.59226213 50.38227081 -10.25390625 51.58984375 C-20.00477575 52.07093358 -27.32319389 48.50760458 -35 42.75 C-40.3243763 35.42898258 -42.05036996 27.95440389 -41 19 C-39.71978598 11.93596191 -36.49525508 6.62123828 -31 2 C-21.55395373 -4.12877333 -10.07914166 -5.56168853 0 0 Z " fill="#FB7F09" transform="translate(407,47)"/>
</svg>
